HIERARCHY
ROOT Pelvis
{
	OFFSET 0.000000 -0.827000 96.638000
	CHANNELS 6 Xposition Yposition Zposition Xrotation Yrotation Zrotation
	JOINT Left_Thigh
	{
		OFFSET 8.514300 1.474900 -1.687401
		CHANNELS 6 Xposition Yposition Zposition Xrotation Yrotation Zrotation
		JOINT Left_Calf
		{
			OFFSET 3.492000 1.469100 -46.038998
			CHANNELS 6 Xposition Yposition Zposition Xrotation Yrotation Zrotation
			JOINT Left_Foot
			{
				OFFSET 3.213700 1.976600 -42.431004
				CHANNELS 6 Xposition Yposition Zposition Xrotation Yrotation Zrotation
				JOINT Left_Toe0
				{
					OFFSET 2.413299 -11.930099 -3.901400
					CHANNELS 6 Xposition Yposition Zposition Xrotation Yrotation Zrotation
					End Site
					{
						OFFSET 2.413298 -11.930099 -3.901400
					}
				}
			}
		}
	}
	JOINT Right_Thigh
	{
		OFFSET -8.514300 1.474900 -1.687302
		CHANNELS 6 Xposition Yposition Zposition Xrotation Yrotation Zrotation
		JOINT Right_Calf
		{
			OFFSET -3.491000 1.466400 -46.039200
			CHANNELS 6 Xposition Yposition Zposition Xrotation Yrotation Zrotation
			JOINT Right_Foot
			{
				OFFSET -3.214899 1.984000 -42.430500
				CHANNELS 6 Xposition Yposition Zposition Xrotation Yrotation Zrotation
				JOINT Right_Toe0
				{
					OFFSET -2.448700 -11.922700 -3.901900
					CHANNELS 6 Xposition Yposition Zposition Xrotation Yrotation Zrotation
					End Site
					{
						OFFSET -2.448700 -11.922701 -3.901900
					}
				}
			}
		}
	}
	JOINT Spine
	{
		OFFSET 0.000000 0.006400 9.490395
		CHANNELS 6 Xposition Yposition Zposition Xrotation Yrotation Zrotation
		JOINT Spine1
		{
			OFFSET 0.000000 0.006200 8.078209
			CHANNELS 6 Xposition Yposition Zposition Xrotation Yrotation Zrotation
			JOINT Spine2
			{
				OFFSET 0.000000 1.379300 15.708191
				CHANNELS 6 Xposition Yposition Zposition Xrotation Yrotation Zrotation
				JOINT Right_Clavicle
				{
					OFFSET -3.426600 3.704400 18.017014
					CHANNELS 6 Xposition Yposition Zposition Xrotation Yrotation Zrotation
					JOINT Right_UpperArm
					{
						OFFSET -12.661501 0.083100 -3.988907
						CHANNELS 6 Xposition Yposition Zposition Xrotation Yrotation Zrotation
						JOINT Right_Forearm
						{
							OFFSET -14.438898 -1.941700 -18.467506
							CHANNELS 6 Xposition Yposition Zposition Xrotation Yrotation Zrotation
							JOINT Right_Hand
							{
								OFFSET -14.699602 -10.681400 -17.874901
								CHANNELS 6 Xposition Yposition Zposition Xrotation Yrotation Zrotation
								End Site
								{
									OFFSET -14.699600 -10.681400 -17.874901
								}
							}
						}
					}
				}
				JOINT Neck
				{
					OFFSET 0.000000 2.070700 22.622803
					CHANNELS 6 Xposition Yposition Zposition Xrotation Yrotation Zrotation
					JOINT Head
					{
						OFFSET 0.000000 -1.059900 7.052094
						CHANNELS 6 Xposition Yposition Zposition Xrotation Yrotation Zrotation
						End Site
						{
							OFFSET 0.000000 -1.059900 7.052094
						}
					}
				}
				JOINT Left_Clavicle
				{
					OFFSET 3.426600 3.704500 18.017014
					CHANNELS 6 Xposition Yposition Zposition Xrotation Yrotation Zrotation
					JOINT Left_UpperArm
					{
						OFFSET 12.661501 0.083001 -3.988815
						CHANNELS 6 Xposition Yposition Zposition Xrotation Yrotation Zrotation
						JOINT Left_Forearm
						{
							OFFSET 14.435200 -1.956300 -18.468788
							CHANNELS 6 Xposition Yposition Zposition Xrotation Yrotation Zrotation
							JOINT Left_Hand
							{
								OFFSET 14.703300 -10.656900 -17.886604
								CHANNELS 6 Xposition Yposition Zposition Xrotation Yrotation Zrotation
								End Site
								{
									OFFSET 14.703300 -10.656901 -17.886604
								}
							}
						}
					}
				}
			}
		}
	}
}
MOTION
Frames: 4
Frame Time: 0.033333
34.872799 -3.970999 79.970001 2.478801 -3.269600 -2.089634 10.087291 0.000192 -0.000345 -46.188376 3.836385 2.403113 3.336370 1.401679 -44.005524 59.761287 2.428431 3.500142 3.552469 1.551432 -41.533756 8.356567 -3.589232 -1.783711 1.448274 -12.289082 -3.196039 0.000050 0.001787 0.001224 -10.087364 -0.000354 0.000555 -29.988297 -5.675651 -2.071517 -3.336183 1.401694 -44.005875 54.712721 -2.139641 -3.240285 -3.558328 1.559022 -41.533497 -25.968955 3.308937 5.864356 -1.472496 -12.184958 -3.200737 -0.000194 0.000039 -0.000121 -0.000240 -0.034586 9.566754 0.207022 0.754764 0.435113 -0.000201 -0.000260 14.349590 7.266052 -2.172015 1.026248 -0.000453 0.760562 8.768398 7.059476 0.378851 0.345612 -3.579567 3.052424 17.581989 -1.634003 21.670257 6.288276 -12.693879 0.084183 -3.999635 2.817891 -13.860478 44.784543 -14.735044 -1.977224 -18.852631 -44.886501 -10.183316 33.755741 -14.296295 -10.389498 -17.385183 -0.002139 0.003211 0.000041 0.000684 3.704589 21.105064 -26.798889 4.721795 1.824829 -0.000278 -1.101406 7.327743 -0.745446 -0.839875 3.438159 3.583297 3.116424 17.573349 -1.270841 -21.010985 -5.436685 12.987732 0.086360 -4.091545 2.974121 29.870982 -54.750646 14.735504 -1.994012 -18.852720 -44.736475 10.103984 -33.644457 14.298514 -10.365747 -17.396915 0.000289 0.000700 0.001801 
35.090698 -2.823104 79.205795 2.949977 -3.818563 -1.755989 10.087258 -0.000618 -0.000132 -47.381784 4.081916 1.610034 3.336825 1.399353 -44.004841 59.951903 2.440734 3.506818 3.554334 1.550017 -41.534832 6.691718 -3.651540 -7.558024 1.448205 -12.288648 -3.195141 0.000044 0.001785 0.001227 -10.087432 0.000366 0.000345 -32.544612 -4.630455 -2.656084 -3.339982 1.400146 -44.006165 57.214603 -2.288296 -3.362187 -3.557726 1.561069 -41.534813 -26.425734 3.666438 6.555102 -1.472604 -12.185080 -3.200489 -0.000194 0.000039 -0.000122 0.000177 -0.012379 9.566052 0.072088 0.743521 0.373868 0.000123 -0.000333 14.350046 4.955978 -2.811522 0.951930 -0.000456 0.760330 8.768188 8.672470 0.532146 0.277257 -3.584601 3.074878 17.613443 -1.309270 22.696223 5.108102 -12.612772 0.083886 -3.973898 2.474892 -14.635536 44.931792 -14.733903 -1.976396 -18.853451 -46.212391 -10.920912 34.664323 -14.296418 -10.389949 -17.385950 -0.002275 0.003377 -0.000213 0.000745 3.710874 21.134165 -27.148486 7.065413 2.144932 -0.000071 -1.101389 7.327899 -0.925623 -1.333495 3.422847 3.578565 3.106436 17.600212 -1.130926 -19.252915 -5.493600 13.031549 0.086549 -4.106069 3.091701 27.418386 -52.685545 14.734353 -1.993334 -18.852571 -48.012757 11.970595 -35.883819 14.298507 -10.364440 -17.395741 0.001993 0.003587 0.004048 
35.444702 -1.725700 79.161407 3.235131 -4.282674 -1.825789 10.087213 -0.000134 0.000181 -49.480168 3.844824 -0.226392 3.337432 1.399544 -44.007050 66.700260 2.880278 3.771043 3.555758 1.551281 -41.532314 3.371347 -3.742130 -8.155347 1.447688 -12.289549 -3.195641 0.000046 0.001786 0.001225 -10.087308 -0.000027 -0.000055 -33.888240 -4.075679 -2.321966 -3.339277 1.401415 -44.004021 57.636210 -2.313312 -3.378137 -3.559175 1.559244 -41.535000 -25.761653 4.464806 6.562053 -1.472738 -12.184902 -3.200391 -0.000191 0.000040 -0.000121 0.000259 0.014337 9.566530 -0.085582 0.110550 0.396742 -0.000346 0.000419 14.350013 3.810687 -3.146784 0.982902 0.000055 0.760039 8.768560 8.793966 1.059388 0.180773 -3.582596 3.083347 17.644901 -0.980140 23.702401 4.028115 -12.531797 0.082434 -3.948690 3.950438 -15.770634 45.846545 -14.734703 -1.976378 -18.852879 -47.577161 -11.706147 35.593113 -14.295749 -10.390768 -17.386658 0.000062 0.000364 0.003003 0.000280 3.716182 21.168989 -27.043337 8.971031 2.563840 -0.000070 -1.101466 7.328054 -0.972513 -1.327717 3.771828 3.580765 3.109354 17.637877 -0.901547 -17.699182 -5.165741 12.904144 0.085148 -4.065664 4.572799 23.814887 -51.393144 14.734791 -1.992458 -18.853487 -50.798060 13.672418 -37.734791 14.298859 -10.365290 -17.396729 0.002040 0.003242 0.001242 
35.807800 -1.015604 79.535706 3.424843 -4.503378 -1.964822 10.087454 -0.000486 -0.000059 -47.946678 2.929381 -3.214998 3.337297 1.400608 -44.005585 66.940737 2.897541 3.780443 3.555767 1.552655 -41.535900 2.956218 -3.995959 -5.240633 1.448430 -12.288842 -3.195195 0.000044 0.001778 0.001225 -10.087534 0.000324 0.000128 -34.196165 -3.907833 -1.730732 -3.337200 1.401553 -44.004990 56.761198 -2.263010 -3.338374 -3.558756 1.559535 -41.534290 -24.706647 4.950526 6.202617 -1.472814 -12.185138 -3.200681 -0.000191 0.000038 -0.000123 -0.000264 0.022024 9.566700 -0.130331 -0.487090 0.430290 0.000134 0.000417 14.349097 3.464312 -3.500998 1.091727 0.000005 0.760731 8.768839 8.348804 1.468571 0.141720 -3.580740 3.083097 17.649864 -0.741624 25.028380 3.208017 -12.480556 0.082533 -3.932080 6.914309 -17.329541 47.262618 -14.734039 -1.975905 -18.852221 -48.684735 -12.367858 36.339895 -14.296559 -10.388989 -17.385859 -0.000971 0.001090 -0.002468 -0.000515 3.716575 21.176575 -26.999031 10.599666 2.985901 -0.000034 -1.101076 7.328420 -0.904281 -0.955882 4.329689 3.582931 3.106905 17.648989 -0.736754 -16.274654 -4.966955 12.704909 0.084402 -4.003302 6.330744 19.475724 -50.868401 14.735211 -1.991801 -18.852968 -52.810394 14.975775 -39.044305 14.300592 -10.363688 -17.395838 -0.000525 -0.000535 0.001764 
